<svg width="152" height="98" viewBox="0 0 152 98" fill="none" xmlns="http://www.w3.org/2000/svg">
<path d="M25 97.5L22.5 88.5H129.5L127.5 97.5H25Z" fill="#C9A94C"/>
<path d="M99 32.5L111.5 20.5L113 19L119.5 36.5L106.5 46.5L99 32.5Z" fill="#C9A94C"/>
<path d="M53.5 33.5L41 21.5L39.5 20L33 37.5L46 47.5L53.5 33.5Z" fill="#C9A94C"/>
<path d="M103 49.5L96.5 55L76 18V0L103 49.5Z" fill="#C9A94C"/>
<path d="M49 49.5L55.5 55L76 18V0L49 49.5Z" fill="#C9A94C"/>
<path d="M21 84L0 19.5L76.5 76L151.5 19.5L131.5 84H21Z" fill="#C9A94C"/>
</svg>
